<?xml version="1.0" standalone="no"?>
<!DOCTYPE svg PUBLIC "-//W3C//DTD SVG 20010904//EN"
 "http://www.w3.org/TR/2001/REC-SVG-20010904/DTD/svg10.dtd">
<svg version="1.0" xmlns="http://www.w3.org/2000/svg"
 width="700.000000pt" height="700.000000pt" viewBox="0 0 700.000000 700.000000"
 preserveAspectRatio="xMidYMid meet">
<metadata>
Created by potrace 1.11, written by Peter Selinger 2001-2013
</metadata>
<g transform="translate(0.000000,700.000000) scale(0.100000,-0.100000)"
fill="#000000" stroke="none">
<path d="M3280 6994 c-19 -2 -84 -9 -145 -14 -689 -66 -1379 -363 -1915 -826
-680 -586 -1102 -1391 -1202 -2289 -17 -155 -17 -575 0 -730 75 -679 335
-1306 761 -1835 95 -118 317 -347 436 -450 540 -466 1176 -741 1920 -832 130
-16 600 -16 730 0 542 66 1005 222 1436 482 252 153 430 292 648 504 585 573
933 1291 1033 2131 17 144 17 586 0 730 -75 631 -287 1186 -640 1677 -247 342
-567 650 -907 874 -474 311 -961 490 -1525 560 -110 14 -556 27 -630 18z m487
-275 c677 -57 1306 -318 1828 -759 113 -96 335 -326 434 -450 721 -905 900
-2131 469 -3215 -53 -133 -182 -386 -263 -515 -262 -415 -649 -795 -1064
-1044 -667 -399 -1423 -546 -2186 -425 -924 148 -1748 700 -2241 1504 -601
980 -631 2243 -77 3240 256 459 626 860 1058 1144 439 290 969 475 1490 520
147 12 405 13 552 0z"/>
<path d="M2983 6000 c-29 -4 -67 -16 -85 -27 -75 -43 -76 -46 -285 -843 l-195
-743 183 -184 c173 -173 482 -466 541 -512 l26 -21 173 697 c94 384 174 704
177 711 9 25 31 11 41 -25 77 -290 531 -2130 529 -2142 -4 -17 95 -97 777
-629 226 -176 411 -317 413 -313 2 5 -921 3530 -1009 3851 -25 91 -57 135
-118 164 -45 21 -58 21 -581 23 -294 0 -558 -2 -587 -7z"/>
<path d="M1975 2698 c-252 -957 -409 -1571 -410 -1600 0 -87 -23 -83 455 -86
454 -3 460 -2 494 51 8 12 58 193 111 402 53 209 105 415 117 458 l20 77 738
0 737 0 41 -157 c23 -87 75 -292 116 -455 41 -163 82 -310 90 -326 9 -17 29
-35 47 -41 45 -15 829 -15 863 0 13 7 30 25 37 41 14 35 14 39 -100 468 l-77
295 -415 323 c-228 178 -499 391 -603 473 l-188 149 -549 0 c-485 0 -549 2
-549 15 0 9 41 178 90 377 50 198 90 366 88 372 -2 6 -84 86 -183 177 -99 92
-264 250 -366 353 -102 102 -188 186 -191 186 -2 0 -189 -699 -413 -1552z"/>
</g>
</svg>
