<svg xmlns="http://www.w3.org/2000/svg" width="257" height="283" viewBox="0 0 257 283">
  <g id="Group_1" data-name="Group 1" transform="translate(-1370 -541)">
    <g id="Path_1" data-name="Path 1" transform="translate(1370 541)" opacity="0.57">
      <path d="M 227 278 L 30 278 C 26.62283325195312 278 23.34929084777832 277.3397216796875 20.27041625976562 276.0374145507812 C 17.29400062561035 274.7785339355469 14.61991691589355 272.9752502441406 12.32233333587646 270.6776733398438 C 10.02474975585938 268.3800964355469 8.221458435058594 265.7059936523438 6.962583541870117 262.7295837402344 C 5.66029167175293 259.6506958007812 5 256.3771667480469 5 253 L 5 30 C 5 26.62283325195312 5.66029167175293 23.34929084777832 6.962583541870117 20.27041625976562 C 8.221458435058594 17.29400062561035 10.02474975585938 14.61991691589355 12.32233333587646 12.32233333587646 C 14.61991691589355 10.02474975585938 17.29400062561035 8.221458435058594 20.27041625976562 6.962583541870117 C 23.34929084777832 5.66029167175293 26.62283325195312 5 30 5 L 227 5 C 230.3771667480469 5 233.6507110595703 5.66029167175293 236.7295837402344 6.962583541870117 C 239.7059936523438 8.221458435058594 242.3800811767578 10.02474975585938 244.6776733398438 12.32233333587646 C 246.9752502441406 14.61991691589355 248.7785491943359 17.29400062561035 250.0374145507812 20.27041625976562 C 251.3397064208984 23.34929084777832 252 26.62283325195312 252 30 L 252 253 C 252 256.3771667480469 251.3397064208984 259.6506958007812 250.0374145507812 262.7295837402344 C 248.7785491943359 265.7059936523438 246.9752502441406 268.3800964355469 244.6776733398438 270.6776733398438 C 242.3800811767578 272.9752502441406 239.7059936523438 274.7785339355469 236.7295837402344 276.0374145507812 C 233.6507110595703 277.3397216796875 230.3771667480469 278 227 278 Z" stroke="none"/>
      <path d="M 30 10 C 18.97195434570312 10 10 18.97195434570312 10 30 L 10 253 C 10 264.0280456542969 18.97195434570312 273 30 273 L 227 273 C 238.0280456542969 273 247 264.0280456542969 247 253 L 247 30 C 247 18.97195434570312 238.0280456542969 10 227 10 L 30 10 M 30 0 L 227 0 C 243.5685424804688 0 257 13.43145751953125 257 30 L 257 253 C 257 269.5685424804688 243.5685424804688 283 227 283 L 30 283 C 13.43145751953125 283 0 269.5685424804688 0 253 L 0 30 C 0 13.43145751953125 13.43145751953125 0 30 0 Z" stroke="none" fill="#313131"/>
    </g>
    <rect id="Rectangle_4" data-name="Rectangle 4" width="47" height="23" transform="translate(1404 576)" fill="#ccc"/>
    <rect id="Rectangle_5" data-name="Rectangle 5" width="47" height="23" transform="translate(1404 614)" fill="#be9aa6"/>
    <rect id="Rectangle_6" data-name="Rectangle 6" width="47" height="23" transform="translate(1404 652)" fill="#74597e"/>
    <rect id="Rectangle_7" data-name="Rectangle 7" width="47" height="23" transform="translate(1404 690)" fill="#641112"/>
    <rect id="Rectangle_8" data-name="Rectangle 8" width="47" height="23" transform="translate(1404 728)" fill="#8c1c59"/>
    <rect id="Rectangle_9" data-name="Rectangle 9" width="47" height="23" transform="translate(1404 766)" fill="#1c1c1c"/>
    <text id="_CCCCCC" data-name="#CCCCCC" transform="translate(1500 595)" fill="#fafafa" font-size="20" font-family="HelveticaNeue-Medium, Helvetica Neue" font-weight="500"><tspan x="0" y="0">#CCCCCC</tspan></text>
    <text id="_BE9AA6" data-name="#BE9AA6" transform="translate(1500 633)" fill="#fafafa" font-size="20" font-family="HelveticaNeue-Medium, Helvetica Neue" font-weight="500"><tspan x="0" y="0">#BE9AA6</tspan></text>
    <text id="_74597E" data-name="#74597E" transform="translate(1500 671)" fill="#fafafa" font-size="20" font-family="HelveticaNeue-Medium, Helvetica Neue" font-weight="500"><tspan x="0" y="0">#74597E</tspan></text>
    <text id="_641112" data-name="#641112" transform="translate(1500 709)" fill="#fafafa" font-size="20" font-family="HelveticaNeue-Medium, Helvetica Neue" font-weight="500"><tspan x="0" y="0">#641112</tspan></text>
    <text id="_8C1C59" data-name="#8C1C59" transform="translate(1500 747)" fill="#fafafa" font-size="20" font-family="HelveticaNeue-Medium, Helvetica Neue" font-weight="500"><tspan x="0" y="0">#8C1C59</tspan></text>
    <text id="_1C1C1C" data-name="#1C1C1C" transform="translate(1500 785)" fill="#fafafa" font-size="20" font-family="HelveticaNeue-Medium, Helvetica Neue" font-weight="500"><tspan x="0" y="0">#1C1C1C</tspan></text>
  </g>
</svg>
