<svg xmlns="http://www.w3.org/2000/svg" width="1273.952" height="63.48" viewBox="0 0 1273.952 63.48">
  <g id="Group_13" data-name="Group 13" transform="translate(-309.38 -517.137)">
    <path id="Path_141" data-name="Path 141" d="M363.529,551.38q0,5.538-2.336,7.871t-7.871,2.336H341.385q-5.364,0-7.7-2.336t-2.336-7.871V523.362q-10.992-.036-21.971-.1v29.155q0,13.666,7.439,20.933t21.106,7.266h19.03q13.494,0,21.02-7.353t7.525-20.846V523.334q-10.989.045-21.971.059Z" fill="#fff"/>
    <path id="Path_142" data-name="Path 142" d="M407.125,576.984q0,3.633,3.632,3.633h14.359q3.635,0,3.634-3.633V523.069q-10.812.089-21.625.161Z" fill="#fff"/>
    <path id="Path_143" data-name="Path 143" d="M464.214,537.367h-.692l-7.752-14.545q-10.414.1-20.833.2l29.1,54.133a5.78,5.78,0,0,0,5.536,3.461h12.629q3.631,0,3.632-3.633V522.5q-10.807.124-21.625.24Z" fill="#fff"/>
    <path id="Path_144" data-name="Path 144" d="M506.6,522.258v30.16q0,13.666,7.439,20.933t21.106,7.266H554q13.494,0,21.02-7.353t7.525-20.846v-8.131q0-3.8-3.806-3.807H564.207q-3.633,0-3.633,3.807v7.093q0,5.538-2.336,7.871t-7.871,2.336H538.6q-5.364,0-7.7-2.336t-2.335-7.871V522c-.19,0-.379,0-.569,0Q517.314,522.13,506.6,522.258Z" fill="#fff"/>
    <path id="Path_145" data-name="Path 145" d="M654.166,551.38q0,5.538-2.335,7.871t-7.872,2.336H631.676q-5.538,0-7.785-2.336t-2.249-7.871V522.025q-10.989-.072-21.971-.119v30.512q0,13.666,7.439,20.933t21.106,7.266h19.376q13.665,0,21.106-7.266t7.44-20.933V522.466q-10.988-.1-21.972-.192Z" fill="#fff"/>
    <path id="Path_146" data-name="Path 146" d="M696.9,576.984q0,3.633,3.632,3.633h14.36q3.633,0,3.633-3.633V522.827q-10.813-.084-21.625-.178Z" fill="#fff"/>
    <path id="Path_147" data-name="Path 147" d="M753.985,537.367h-.692l-7.653-14.359q-10.506-.059-21.013-.135l29.185,54.283a5.783,5.783,0,0,0,5.537,3.461h12.629q3.631,0,3.632-3.633V523.126q-10.81-.02-21.625-.07Z" fill="#fff"/>
    <path id="Path_148" data-name="Path 148" d="M832.353,558.127h-.693L824.164,523q-10.832.078-21.669.106l13.942,53.875a4,4,0,0,0,4.325,3.633h22.663q3.284,0,4.151-3.633l14.085-54.428q-10.887.181-21.782.3Z" fill="#fff"/>
    <path id="Path_149" data-name="Path 149" d="M889,522l-.769.016v54.968q0,3.633,3.633,3.633h56.572q3.458,0,3.46-3.633V565.22q0-3.633-3.46-3.633H912.278q-2.074,0-2.076-1.9V535.637q0-1.9,2.076-1.9h29.583q3.633,0,3.633-3.633v-7.662C926.742,521.821,908.028,521.44,889,522Z" fill="#fff"/>
    <path id="Path_150" data-name="Path 150" d="M971.1,523.363v53.621q0,3.633,3.632,3.633h14.36q3.633,0,3.633-3.633V524.046c-.907-.017-1.816-.024-2.722-.046Q980.5,523.721,971.1,523.363Z" fill="#fff"/>
    <path id="Path_151" data-name="Path 151" d="M1028.187,537.367h-.693l-7.151-13.419q-10.445.246-20.835.189l28.506,53.019a5.781,5.781,0,0,0,5.536,3.461h12.629q3.633,0,3.633-3.633V522.852c-7.213.341-14.425.648-21.625.879Z" fill="#fff"/>
    <path id="Path_152" data-name="Path 152" d="M1088.389,576.984q0,3.633,3.8,3.633h14.533q3.631,0,3.632-3.633V520.1q-10.947.312-21.97.837Z" fill="#fff"/>
    <path id="Path_153" data-name="Path 153" d="M1149.8,576.984q0,3.633,3.633,3.633h14.7q3.633,0,3.632-3.633V521.292c-7.323-.388-14.647-.741-21.97-1Z" fill="#fff"/>
    <path id="Path_154" data-name="Path 154" d="M1247.893,524.235V551.38q0,5.538-2.335,7.871t-7.872,2.336H1225.4q-5.538,0-7.784-2.336t-2.249-7.871V523.563c-7.324-.3-14.648-.678-21.972-1.08v29.935q0,13.666,7.44,20.933t21.1,7.266h19.376q13.666,0,21.107-7.266t7.439-20.933V524.136Q1258.9,524.277,1247.893,524.235Z" fill="#fff"/>
    <path id="Path_155" data-name="Path 155" d="M1290.622,576.984q0,3.633,3.633,3.633h14.359q3.633,0,3.633-3.633V522.893q-10.812.5-21.625.808Z" fill="#fff"/>
    <path id="Path_156" data-name="Path 156" d="M1347.712,537.367h-.692l-8.505-15.957q-10.164.675-20.308,1.19l29.332,54.556a5.781,5.781,0,0,0,5.536,3.461H1365.7q3.633,0,3.633-3.633V519q-10.836.977-21.625,1.766Z" fill="#fff"/>
    <path id="Path_157" data-name="Path 157" d="M1441.649,540.308h-25.6l5.535-22.219c-7-.553-14.037-.911-21.114-.952l-15.734,59.847q-1.038,3.633,2.076,3.633h16.608a3.447,3.447,0,0,0,2.509-.779,5.349,5.349,0,0,0,1.124-2.854l4.845-19.031h33.734l4.844,19.031a5.9,5.9,0,0,0,1.038,2.854,3.4,3.4,0,0,0,2.595.779h16.608q3.114,0,2.076-3.633l-14.422-54.86c-7.291-.89-14.584-1.806-21.9-2.609Z" fill="#fff"/>
    <path id="Path_158" data-name="Path 158" d="M1488.185,525.242v51.742q0,3.633,3.632,3.633h56.917q3.459,0,3.46-3.633V565.22q0-3.8-3.46-3.806h-36.5q-2.074,0-2.076-1.9V525.16A34.388,34.388,0,0,1,1503,526C1498.049,525.879,1493.112,525.61,1488.185,525.242Z" fill="#fff"/>
    <path id="Path_159" data-name="Path 159" d="M1583.332,555.705v21.279q0,3.633-3.287,3.633h-15.4q-3.462,0-3.46-3.633V555.878q0-3.459,3.46-3.46h15.4Q1583.328,552.418,1583.332,555.705Z" fill="#fff"/>
  </g>
</svg>
