<svg xmlns="http://www.w3.org/2000/svg" width="1200.775" height="56.622" viewBox="0 0 1200.775 56.622">
  <g id="Group_12" data-name="Group 12" transform="translate(-309.38 -466.378)">
    <path id="Path_121" data-name="Path 121" d="M331.351,470.011q0-3.633-3.633-3.633h-14.7q-3.633,0-3.633,3.633v50.252q10.975.075,21.971.1Z" fill="#fff"/>
    <path id="Path_122" data-name="Path 122" d="M381.694,466.378H367.162q-3.633,0-3.633,3.633v50.382q10.983-.015,21.971-.059v-50.5Q385.5,466.379,381.694,466.378Z" fill="#fff"/>
    <path id="Path_123" data-name="Path 123" d="M482.207,466.378h-14.36q-3.633,0-3.633,3.633v49.728q10.822-.113,21.625-.24V470.011Q485.839,466.378,482.207,466.378Z" fill="#fff"/>
    <path id="Path_124" data-name="Path 124" d="M428.576,468.8q-1.212-2.421-4.844-2.422H410.757q-3.633,0-3.632,3.633V520.23q10.814-.067,21.625-.161V509.8h.691l5.5,10.222q10.422-.09,20.833-.2Z" fill="#fff"/>
    <path id="Path_125" data-name="Path 125" d="M530.9,487.743q2.336-2.336,7.7-2.335h11.764q5.535,0,7.871,2.335t2.336,7.872v7.093q0,3.807,3.633,3.806h14.532q3.8,0,3.806-3.806v-8.131q0-13.494-7.525-20.847T554,466.378H535.143q-13.668,0-21.106,7.266T506.6,494.577v24.681q10.707-.129,21.4-.258c.19,0,.379,0,.569,0V495.615Q528.569,490.08,530.9,487.743Z" fill="#fff"/>
    <path id="Path_126" data-name="Path 126" d="M668.7,473.644q-7.44-7.266-21.106-7.266H628.216q-13.668,0-21.106,7.266t-7.439,20.933v24.329q10.983.048,21.971.119v-23.41q0-5.535,2.249-7.872t7.785-2.335h12.283q5.535,0,7.872,2.335t2.335,7.872v23.659q10.984.094,21.972.192V494.577Q676.138,480.912,668.7,473.644Z" fill="#fff"/>
    <path id="Path_127" data-name="Path 127" d="M718.348,468.8q-1.214-2.421-4.845-2.422H700.528q-3.633,0-3.632,3.633v49.638q10.812.094,21.625.178V509.8h.691l5.415,10.072q10.508.078,21.013.135Z" fill="#fff"/>
    <path id="Path_128" data-name="Path 128" d="M771.978,466.378h-14.36q-3.633,0-3.633,3.633v50.045q10.815.049,21.625.07V470.011Q775.61,466.378,771.978,466.378Z" fill="#fff"/>
    <path id="Path_129" data-name="Path 129" d="M813.495,470.011q-.693-3.633-4.151-3.633H793.081q-4.669,0-3.46,3.979l12.874,49.752q10.837-.03,21.669-.106Z" fill="#fff"/>
    <path id="Path_130" data-name="Path 130" d="M870.932,466.378H854.67q-3.463,0-4.152,3.633l-10.639,49.847q10.9-.118,21.782-.3l12.731-49.2Q875.254,466.379,870.932,466.378Z" fill="#fff"/>
    <path id="Path_131" data-name="Path 131" d="M941.861,511.7H912.278q-2.074,0-2.076-1.9v-22.49q0-1.9,2.076-1.9h36.158q3.458,0,3.46-3.633V470.011q0-3.633-3.46-3.633H891.864q-3.633,0-3.633,3.633v49.005L889,519c19.028-.56,37.742-.179,56.494.439v-4.1Q945.494,511.7,941.861,511.7Z" fill="#fff"/>
    <path id="Path_132" data-name="Path 132" d="M1020.343,520.948,992.549,468.8q-1.214-2.421-4.845-2.422H974.729q-3.632,0-3.632,3.633v50.352q9.413.345,18.9.637c.906.022,1.815.029,2.722.046V509.8h.691l6.095,11.336Q1009.894,521.206,1020.343,520.948Z" fill="#fff"/>
    <path id="Path_133" data-name="Path 133" d="M1046.179,466.378h-14.36q-3.633,0-3.632,3.633v50.72c7.2-.231,14.412-.538,21.625-.879V470.011Q1049.812,466.378,1046.179,466.378Z" fill="#fff"/>
    <path id="Path_134" data-name="Path 134" d="M1112.436,485.408h19.721q3.634,0,3.634-3.633V470.011q0-3.633-3.634-3.633h-65.393q-3.633,0-3.633,3.633v11.764q0,3.633,3.633,3.633h19.721a1.683,1.683,0,0,1,1.9,1.9v30.63q11.019-.507,21.97-.837V487.311Q1110.359,485.409,1112.436,485.408Z" fill="#fff"/>
    <path id="Path_135" data-name="Path 135" d="M1168.141,466.378h-14.7q-3.633,0-3.633,3.633V517.29c7.323.261,14.647.614,21.97,1V470.011Q1171.773,466.378,1168.141,466.378Z" fill="#fff"/>
    <path id="Path_136" data-name="Path 136" d="M1262.425,473.644q-7.44-7.266-21.107-7.266h-19.376q-13.666,0-21.1,7.266t-7.44,20.933v24.906c7.324.4,14.648.779,21.972,1.08V495.615q0-5.535,2.249-7.872t7.784-2.335h12.284q5.535,0,7.872,2.335t2.335,7.872v25.62q11.006.048,21.971-.1V494.577Q1269.864,480.912,1262.425,473.644Z" fill="#fff"/>
    <path id="Path_137" data-name="Path 137" d="M1365.7,466.378h-14.359q-3.633,0-3.633,3.633v47.754q10.792-.8,21.625-1.766V470.011Q1369.337,466.378,1365.7,466.378Z" fill="#fff"/>
    <path id="Path_138" data-name="Path 138" d="M1312.074,468.8q-1.212-2.421-4.845-2.422h-12.974q-3.633,0-3.633,3.633V520.7q10.815-.315,21.625-.808V509.8h.691l5.269,9.8q10.146-.516,20.308-1.19Z" fill="#fff"/>
    <path id="Path_139" data-name="Path 139" d="M1440.265,466.378h-23.009a4.965,4.965,0,0,0-5.19,3.633l-11.6,44.126c7.077.041,14.11.4,21.114.952l6.921-27.778h.692l7.276,29.2c7.314.8,14.607,1.719,21.9,2.609l-12.912-49.113Q1444.588,466.378,1440.265,466.378Z" fill="#fff"/>
    <path id="Path_140" data-name="Path 140" d="M1506.522,466.378h-14.7q-3.632,0-3.632,3.633v52.231c4.927.368,9.864.637,14.815.758a34.388,34.388,0,0,0,7.155-.84V470.011Q1510.155,466.378,1506.522,466.378Z" fill="#fff"/>
  </g>
</svg>
