<svg xmlns="http://www.w3.org/2000/svg" width="207.896" height="187.08" viewBox="0 0 207.896 187.08">
  <g id="Group_6" data-name="Group 6" transform="translate(-1370 -541)">
    <g id="Path_1" data-name="Path 1" transform="translate(1370 541)" opacity="0.57">
      <path d="M 183.6279296875 182.0802001953125 L 24.26799964904785 182.0802001953125 C 21.5490608215332 182.0802001953125 18.92043685913086 181.6481323242188 16.4552173614502 180.7960357666016 C 14.12362384796143 179.9901275634766 12.04321765899658 178.8475341796875 10.27184295654297 177.3999481201172 C 6.872248649597168 174.6217803955078 4.999998569488525 171.0165710449219 4.999998569488525 167.2483825683594 L 4.999998569488525 19.83181953430176 C 4.999998569488525 16.06363105773926 6.872248649597168 12.45841217041016 10.27184295654297 9.680255889892578 C 12.04321765899658 8.232662200927734 14.12362384796143 7.090068817138672 16.4552173614502 6.284162521362305 C 18.92043685913086 5.432068824768066 21.5490608215332 5.000006198883057 24.26799964904785 5.000006198883057 L 183.6279296875 5.000006198883057 C 186.3468780517578 5.000006198883057 188.9754943847656 5.432068824768066 191.4407196044922 6.284162521362305 C 193.7723083496094 7.090068817138672 195.8527221679688 8.232662200927734 197.6240997314453 9.680255889892578 C 201.023681640625 12.45841217041016 202.8959350585938 16.06363105773926 202.8959350585938 19.83181953430176 L 202.8959350585938 167.2483825683594 C 202.8959350585938 171.0165710449219 201.023681640625 174.6217803955078 197.6240997314453 177.3999481201172 C 195.8527221679688 178.8475341796875 193.7723083496094 179.9901275634766 191.4407196044922 180.7960357666016 C 188.9754943847656 181.6481323242188 186.3468780517578 182.0802001953125 183.6279296875 182.0802001953125 Z" stroke="none"/>
      <path d="M 24.26800537109375 10 C 16.533935546875 10 10 14.50242614746094 10 19.83181762695312 L 10 167.2483520507812 C 10 172.5777740478516 16.533935546875 177.0802001953125 24.26800537109375 177.0802001953125 L 183.6279296875 177.0802001953125 C 191.3619995117188 177.0802001953125 197.8959350585938 172.5777740478516 197.8959350585938 167.2483520507812 L 197.8959350585938 19.83181762695312 C 197.8959350585938 14.50242614746094 191.3619995117188 10 183.6279296875 10 L 24.26800537109375 10 M 24.26800537109375 0 L 183.6279296875 0 C 197.0307922363281 0 207.8959350585938 8.878997802734375 207.8959350585938 19.83181762695312 L 207.8959350585938 167.2483520507812 C 207.8959350585938 178.201171875 197.0307922363281 187.0802001953125 183.6279296875 187.0802001953125 L 24.26800537109375 187.0802001953125 C 10.86514282226562 187.0802001953125 0 178.201171875 0 167.2483520507812 L 0 19.83181762695312 C 0 8.878997802734375 10.86514282226562 0 24.26800537109375 0 Z" stroke="none" fill="#313131"/>
    </g>
    <text id="Typography:_" data-name="Typography: " transform="translate(1402 592)" fill="#bfbfbf" font-size="16" font-family="Montserrat-Medium, Montserrat" font-weight="500" letter-spacing="0.01em"><tspan x="0" y="0">Typography: </tspan></text>
    <text id="Rajdhani_San_serif" data-name="Rajdhani,
San serif" transform="translate(1402 640.31)" fill="#bfbfbf" font-size="33" font-family="Rajdhani-Bold, Rajdhani" font-weight="700" letter-spacing="0.01em"><tspan x="0" y="0">Rajdhani,</tspan><tspan font-family="Rajdhani-Medium, Rajdhani" font-weight="500"><tspan x="0" y="42">San serif</tspan></tspan></text>
  </g>
</svg>
