<svg xmlns="http://www.w3.org/2000/svg" width="1200.775" height="58.102" viewBox="0 0 1200.775 58.102">
  <g id="Group_9" data-name="Group 9" transform="translate(-319.38 -484.378)">
    <path id="Path_22" data-name="Path 22" d="M341.351,488.011q0-3.633-3.633-3.633h-14.7q-3.633,0-3.633,3.633V533.27q10.974-.074,21.971-.256Z" fill="#fff"/>
    <path id="Path_23" data-name="Path 23" d="M391.694,484.378H377.162q-3.633,0-3.633,3.633v44.483q10.99-.159,21.971-.225V487.838Q395.5,484.379,391.694,484.378Z" fill="#fff"/>
    <path id="Path_24" data-name="Path 24" d="M492.207,484.378h-14.36q-3.633,0-3.633,3.633v47.062q10.85,1.007,21.625,2.483V488.011Q495.839,484.378,492.207,484.378Z" fill="#fff"/>
    <path id="Path_25" data-name="Path 25" d="M438.576,486.8q-1.212-2.421-4.844-2.422H420.757q-3.633,0-3.632,3.633v44.323q10.83.131,21.625.511V527.8h.691l2.785,5.179q10.834.441,21.616,1.224Z" fill="#fff"/>
    <path id="Path_26" data-name="Path 26" d="M540.9,505.743q2.336-2.336,7.7-2.335h11.764q5.535,0,7.871,2.335t2.336,7.872v7.093q0,3.807,3.633,3.806h14.532q3.8,0,3.806-3.806v-8.131q0-13.494-7.525-20.847T564,484.378H545.143q-13.668,0-21.106,7.266T516.6,512.577v28.37q1.735.33,3.467.676c.9-5.176.955.014,1.842.359L522,542a.248.248,0,0,1-.093-.018c-.613-.126-1.228-.237-1.842-.359-.021.122-.043.243-.065.377q9.324.259,18.569.48V513.615Q538.569,508.08,540.9,505.743Z" fill="#fff"/>
    <path id="Path_27" data-name="Path 27" d="M678.7,491.644q-7.44-7.266-21.106-7.266H638.216q-13.668,0-21.106,7.266t-7.439,20.933v27.79c5.757-.632,11.529-1.4,17.329-2.367,1.549-.227,3.095-.437,4.642-.651V513.615q0-5.535,2.249-7.872t7.785-2.335h12.283q5.535,0,7.872,2.335t2.335,7.872v20.133q11.019-.934,21.972-1.528V512.577Q686.138,498.912,678.7,491.644Z" fill="#fff"/>
    <path id="Path_28" data-name="Path 28" d="M781.978,484.378h-14.36q-3.633,0-3.633,3.633v42.738q10.818.057,21.625.161v-42.9Q785.61,484.378,781.978,484.378Z" fill="#fff"/>
    <path id="Path_29" data-name="Path 29" d="M751.751,530.71l-23.4-43.91q-1.214-2.421-4.845-2.422H710.528q-3.633,0-3.632,3.633v43.313q10.833-.345,21.625-.479V527.8h.691l1.62,3.012Q741.305,530.693,751.751,530.71Z" fill="#fff"/>
    <path id="Path_30" data-name="Path 30" d="M832.7,531.124l-9.2-43.113q-.693-3.633-4.151-3.633H803.081q-4.669,0-3.46,3.979L810.682,531.1Q821.682,531.16,832.7,531.124Z" fill="#fff"/>
    <path id="Path_31" data-name="Path 31" d="M880.932,484.378H864.67q-3.463,0-4.152,3.633l-9.241,43.3C857.141,532.077,863.391,534,869,534a24.8,24.8,0,0,0,3.66-.307l11.732-45.336Q885.254,484.379,880.932,484.378Z" fill="#fff"/>
    <path id="Path_32" data-name="Path 32" d="M951.861,529.7H922.278q-2.074,0-2.076-1.9v-22.49q0-1.9,2.076-1.9h36.158q3.458,0,3.46-3.633V488.011q0-3.633-3.46-3.633H901.864q-3.633,0-3.633,3.633v46.567A10.3,10.3,0,0,0,901,535q27.181.34,54.494.572v-2.235Q955.494,529.7,951.861,529.7Z" fill="#fff"/>
    <path id="Path_33" data-name="Path 33" d="M1056.179,484.378h-14.36q-3.633,0-3.632,3.633v48.463q10.815.156,21.625.348V488.011Q1059.812,484.378,1056.179,484.378Z" fill="#fff"/>
    <path id="Path_34" data-name="Path 34" d="M1002.549,486.8q-1.214-2.421-4.845-2.422H984.729q-3.632,0-3.632,3.633v47.8q10.809.1,21.625.22V527.8h.691l4.457,8.289q10.543.118,21.087.259Z" fill="#fff"/>
    <path id="Path_35" data-name="Path 35" d="M1122.436,503.408h19.721q3.634,0,3.634-3.633V488.011q0-3.633-3.634-3.633h-65.393q-3.633,0-3.633,3.633v11.764q0,3.633,3.633,3.633h19.721a1.683,1.683,0,0,1,1.9,1.9v32.331q10.995.28,21.97.625V505.311Q1120.359,503.409,1122.436,503.408Z" fill="#fff"/>
    <path id="Path_36" data-name="Path 36" d="M1178.141,484.378h-14.7q-3.633,0-3.633,3.633V539.6q10.988.327,21.97.54V488.011Q1181.773,484.378,1178.141,484.378Z" fill="#fff"/>
    <path id="Path_37" data-name="Path 37" d="M1272.425,491.644q-7.44-7.266-21.107-7.266h-19.376q-13.666,0-21.1,7.266t-7.44,20.933v27.892q10.989.118,21.972.15v-27q0-5.535,2.249-7.872t7.784-2.335h12.284q5.535,0,7.872,2.335t2.335,7.872v26.948q10.988-.07,21.971-.2V512.577Q1279.864,498.912,1272.425,491.644Z" fill="#fff"/>
    <path id="Path_38" data-name="Path 38" d="M1322.074,486.8q-1.212-2.421-4.845-2.422h-12.974q-3.633,0-3.633,3.633V540.09q10.815-.162,21.625-.357V527.8h.691l6.349,11.807q10.364-.189,20.723-.392Z" fill="#fff"/>
    <path id="Path_39" data-name="Path 39" d="M1375.7,484.378h-14.359q-3.633,0-3.633,3.633v51.055q10.813-.211,21.625-.421V488.011Q1379.337,484.378,1375.7,484.378Z" fill="#fff"/>
    <path id="Path_40" data-name="Path 40" d="M1450.265,484.378h-23.009a4.965,4.965,0,0,0-5.19,3.633l-13.169,50.1q10.759-.183,21.517-.337l8.087-32.458h.692l8.035,32.248q10.6-.116,21.207-.175l-12.98-49.373Q1454.588,484.378,1450.265,484.378Z" fill="#fff"/>
    <path id="Path_41" data-name="Path 41" d="M1520.155,488.011q0-3.633-3.633-3.633h-14.7q-3.632,0-3.632,3.633v49.322q10.986.03,21.97.141Z" fill="#fff"/>
  </g>
</svg>
