<svg xmlns="http://www.w3.org/2000/svg" width="1242.814" height="108.239" viewBox="0 0 1242.814 108.239">
  <g id="Group_10" data-name="Group 10" transform="translate(-308.38 -328.378)">
    <path id="Path_42" data-name="Path 42" d="M330.351,332.011q0-3.633-3.633-3.633h-14.7q-3.633,0-3.633,3.633V377.27q10.974-.073,21.971-.256Z" fill="#fff"/>
    <path id="Path_43" data-name="Path 43" d="M362.529,407.38q0,5.538-2.336,7.871t-7.871,2.336H340.385q-5.364,0-7.7-2.336t-2.336-7.871V374.014q-10.994.168-21.971.256v34.148q0,13.666,7.439,20.933t21.106,7.266h19.03q13.494,0,21.02-7.353t7.525-20.846V373.269q-10.977.052-21.971.225Z" fill="#fff"/>
    <path id="Path_44" data-name="Path 44" d="M380.694,328.378H366.162q-3.633,0-3.633,3.633v44.483q10.99-.159,21.971-.225V331.838Q384.5,328.379,380.694,328.378Z" fill="#fff"/>
    <path id="Path_45" data-name="Path 45" d="M406.125,432.984q0,3.633,3.632,3.633h14.359q3.635,0,3.634-3.633V373.845q-10.793-.39-21.625-.511Z" fill="#fff"/>
    <path id="Path_46" data-name="Path 46" d="M463.214,393.367h-.692l-9.68-18.163q-10.779-.8-21.616-1.224l31.816,59.176a5.78,5.78,0,0,0,5.536,3.461h12.629q3.631,0,3.632-3.633V378.556q-10.773-1.488-21.625-2.483Z" fill="#fff"/>
    <path id="Path_47" data-name="Path 47" d="M481.207,328.378h-14.36q-3.633,0-3.633,3.633v47.062q10.85,1.006,21.625,2.483V332.011Q484.839,328.378,481.207,328.378Z" fill="#fff"/>
    <path id="Path_48" data-name="Path 48" d="M427.576,330.8q-1.212-2.421-4.844-2.422H409.757q-3.633,0-3.632,3.633v44.323q10.83.13,21.625.511V371.8h.691l2.785,5.179q10.834.441,21.616,1.224Z" fill="#fff"/>
    <path id="Path_49" data-name="Path 49" d="M509.065,362.623c.614.122,1.229.233,1.842.359C510.02,362.637,509.969,357.447,509.065,362.623Z" fill="#fff"/>
    <path id="Path_50" data-name="Path 50" d="M510.907,362.982A.248.248,0,0,0,511,363Z" fill="#fff"/>
    <path id="Path_51" data-name="Path 51" d="M529.9,349.743q2.336-2.336,7.7-2.335h11.764q5.535,0,7.871,2.335t2.336,7.872v7.093q0,3.807,3.633,3.806h14.532q3.8,0,3.806-3.806v-8.131q0-13.494-7.525-20.847T553,328.378H534.143q-13.668,0-21.106,7.266T505.6,356.577v28.37q1.736.33,3.467.676c.9-5.176.955.014,1.842.359L511,386a.248.248,0,0,1-.093-.018c-.613-.126-1.228-.237-1.842-.359-.021.122-.043.243-.065.377q9.324.26,18.569.48V357.615Q527.569,352.08,529.9,349.743Z" fill="#fff"/>
    <path id="Path_52" data-name="Path 52" d="M509.065,382.623q-1.732-.346-3.467-.676v26.471q0,13.666,7.439,20.933t21.106,7.266H553q13.494,0,21.02-7.353t7.525-20.846v-8.131q0-3.8-3.806-3.807H563.207q-3.633,0-3.633,3.807v7.093q0,5.538-2.336,7.871t-7.871,2.336H537.6q-5.364,0-7.7-2.336t-2.335-7.871v-23.9q-9.25-.206-18.569-.48C509.022,382.866,509.044,382.745,509.065,382.623Z" fill="#fff"/>
    <path id="Path_53" data-name="Path 53" d="M667.7,335.644q-7.44-7.266-21.106-7.266H627.216q-13.668,0-21.106,7.266t-7.439,20.933v27.79c5.757-.632,11.529-1.4,17.329-2.367,1.549-.227,3.095-.437,4.642-.651V357.615q0-5.535,2.249-7.872t7.785-2.335h12.283q5.535,0,7.872,2.335t2.335,7.872v20.133q11.019-.934,21.972-1.528V356.577Q675.138,342.912,667.7,335.644Z" fill="#fff"/>
    <path id="Path_54" data-name="Path 54" d="M653.166,407.38q0,5.538-2.335,7.871t-7.872,2.336H630.676q-5.538,0-7.785-2.336t-2.249-7.871V378.349c-1.547.214-3.093.424-4.642.651-5.8.967-11.572,1.735-17.329,2.367v27.051q0,13.666,7.439,20.933t21.106,7.266h19.376q13.665,0,21.106-7.266t7.44-20.933v-35.2q-10.956.6-21.972,1.528Z" fill="#fff"/>
    <path id="Path_55" data-name="Path 55" d="M695.9,432.984q0,3.633,3.632,3.633h14.36q3.633,0,3.633-3.633V371.845q-10.794.143-21.625.479Z" fill="#fff"/>
    <path id="Path_56" data-name="Path 56" d="M770.978,328.378h-14.36q-3.633,0-3.633,3.633v42.738q10.818.057,21.625.161v-42.9Q774.61,328.378,770.978,328.378Z" fill="#fff"/>
    <path id="Path_57" data-name="Path 57" d="M740.751,374.71l-23.4-43.91q-1.214-2.421-4.845-2.422H699.528q-3.633,0-3.632,3.633v43.313q10.833-.345,21.625-.479V371.8h.691l1.62,3.012Q730.305,374.693,740.751,374.71Z" fill="#fff"/>
    <path id="Path_58" data-name="Path 58" d="M752.985,393.367h-.692L740.751,371.71q-10.447-.008-20.919.1l32.98,61.343a5.783,5.783,0,0,0,5.537,3.461h12.629q3.631,0,3.632-3.633V371.91q-10.807-.095-21.625-.161Z" fill="#fff"/>
    <path id="Path_59" data-name="Path 59" d="M821.7,375.124l-9.2-43.113q-.693-3.633-4.151-3.633H792.081q-4.669,0-3.46,3.979L799.682,375.1Q810.682,375.16,821.7,375.124Z" fill="#fff"/>
    <path id="Path_60" data-name="Path 60" d="M840.277,372.311l-8.924,41.816h-.693l-8.964-42q-11.016.047-22.014-.023l15.755,60.883a4,4,0,0,0,4.325,3.633h22.663q3.284,0,4.151-3.633l15.084-58.291A24.8,24.8,0,0,1,858,375C852.391,375,846.141,373.077,840.277,372.311Z" fill="#fff"/>
    <path id="Path_61" data-name="Path 61" d="M869.932,328.378H853.67q-3.463,0-4.152,3.633l-9.241,43.3C846.141,376.077,852.391,378,858,378a24.8,24.8,0,0,0,3.66-.307l11.732-45.336Q874.254,328.379,869.932,328.378Z" fill="#fff"/>
    <path id="Path_62" data-name="Path 62" d="M940.861,373.7H911.278q-2.074,0-2.076-1.9v-22.49q0-1.9,2.076-1.9h36.158q3.458,0,3.46-3.633V332.011q0-3.633-3.46-3.633H890.864q-3.633,0-3.633,3.633v46.567A10.3,10.3,0,0,0,890,379q27.181.34,54.494.572v-2.235Q944.494,373.7,940.861,373.7Z" fill="#fff"/>
    <path id="Path_63" data-name="Path 63" d="M887.231,375.578v57.406q0,3.633,3.633,3.633h56.572q3.458,0,3.46-3.633V421.22q0-3.633-3.46-3.633H911.278q-2.074,0-2.076-1.9V391.637q0-1.9,2.076-1.9h29.583q3.633,0,3.633-3.633v-9.529q-27.3-.256-54.494-.572A10.3,10.3,0,0,1,887.231,375.578Z" fill="#fff"/>
    <path id="Path_64" data-name="Path 64" d="M970.1,432.984q0,3.633,3.632,3.633h14.36q3.633,0,3.633-3.633v-55.95q-10.816-.115-21.625-.22Z" fill="#fff"/>
    <path id="Path_65" data-name="Path 65" d="M1045.179,328.378h-14.36q-3.633,0-3.632,3.633v48.463q10.815.156,21.625.348V332.011Q1048.812,328.378,1045.179,328.378Z" fill="#fff"/>
    <path id="Path_66" data-name="Path 66" d="M991.549,330.8q-1.214-2.421-4.845-2.422H973.729q-3.632,0-3.632,3.633v47.8q10.809.105,21.625.22V371.8h.691l4.457,8.289q10.543.119,21.087.259Z" fill="#fff"/>
    <path id="Path_67" data-name="Path 67" d="M1027.187,393.367h-.693l-8.537-16.018q-10.543-.139-21.087-.259l30.144,56.066a5.781,5.781,0,0,0,5.536,3.461h12.629q3.633,0,3.633-3.633V377.822q-10.811-.19-21.625-.348Z" fill="#fff"/>
    <path id="Path_68" data-name="Path 68" d="M1087.389,432.984q0,3.633,3.8,3.633h14.533q3.631,0,3.632-3.633V379.267q-10.976-.34-21.97-.625Z" fill="#fff"/>
    <path id="Path_69" data-name="Path 69" d="M1111.436,347.408h19.721q3.634,0,3.634-3.633V332.011q0-3.633-3.634-3.633h-65.393q-3.633,0-3.633,3.633v11.764q0,3.633,3.633,3.633h19.721a1.683,1.683,0,0,1,1.9,1.9v32.331q10.995.281,21.97.625V349.311Q1109.359,347.409,1111.436,347.408Z" fill="#fff"/>
    <path id="Path_70" data-name="Path 70" d="M1167.141,328.378h-14.7q-3.633,0-3.633,3.633V383.6q10.988.327,21.97.54V332.011Q1170.773,328.378,1167.141,328.378Z" fill="#fff"/>
    <path id="Path_71" data-name="Path 71" d="M1148.8,432.984q0,3.633,3.633,3.633h14.7q3.633,0,3.632-3.633V381.139q-10.981-.216-21.97-.54Z" fill="#fff"/>
    <path id="Path_72" data-name="Path 72" d="M1246.893,407.38q0,5.538-2.335,7.871t-7.872,2.336H1224.4q-5.538,0-7.784-2.336t-2.249-7.871V381.619q-10.983-.033-21.972-.15v26.949q0,13.666,7.44,20.933t21.1,7.266h19.376q13.666,0,21.107-7.266t7.439-20.933V381.361q-10.983.125-21.971.2Z" fill="#fff"/>
    <path id="Path_73" data-name="Path 73" d="M1261.425,335.644q-7.44-7.266-21.107-7.266h-19.376q-13.666,0-21.1,7.266t-7.44,20.933v27.892q10.989.119,21.972.15v-27q0-5.535,2.249-7.872t7.784-2.335h12.284q5.535,0,7.872,2.335t2.335,7.872v26.948q10.988-.07,21.971-.2V356.577Q1268.864,342.912,1261.425,335.644Z" fill="#fff"/>
    <path id="Path_74" data-name="Path 74" d="M1289.622,432.984q0,3.633,3.633,3.633h14.359q3.633,0,3.633-3.633V380.733q-10.81.19-21.625.357Z" fill="#fff"/>
    <path id="Path_75" data-name="Path 75" d="M1311.074,330.8q-1.212-2.421-4.845-2.422h-12.974q-3.633,0-3.633,3.633V384.09q10.815-.162,21.625-.357V371.8h.691l6.349,11.807q10.364-.189,20.723-.392Z" fill="#fff"/>
    <path id="Path_76" data-name="Path 76" d="M1346.712,393.367h-.692l-7.01-13.151q-10.359.2-20.723.392l28.252,52.548a5.781,5.781,0,0,0,5.536,3.461H1364.7q3.633,0,3.633-3.633V379.645q-10.811.209-21.625.421Z" fill="#fff"/>
    <path id="Path_77" data-name="Path 77" d="M1364.7,328.378h-14.359q-3.633,0-3.633,3.633v51.055q10.813-.212,21.625-.421V332.011Q1368.337,328.378,1364.7,328.378Z" fill="#fff"/>
    <path id="Path_78" data-name="Path 78" d="M1439.265,328.378h-23.009a4.965,4.965,0,0,0-5.19,3.633l-13.169,50.1q10.759-.183,21.517-.337l8.087-32.458h.692l8.035,32.248q10.6-.115,21.207-.175l-12.98-49.373Q1443.588,328.378,1439.265,328.378Z" fill="#fff"/>
    <path id="Path_79" data-name="Path 79" d="M1440.649,396.308h-25.6l4.369-17.539q-10.756.151-21.517.337l-14.165,53.878q-1.038,3.633,2.076,3.633h16.608a3.447,3.447,0,0,0,2.509-.779,5.348,5.348,0,0,0,1.124-2.854l4.845-19.031h33.734l4.844,19.031a5.9,5.9,0,0,0,1.038,2.854,3.4,3.4,0,0,0,2.595.779h16.608q3.114,0,2.076-3.633l-14.354-54.6q-10.6.063-21.207.175Z" fill="#fff"/>
    <path id="Path_80" data-name="Path 80" d="M1509.155,332.011q0-3.633-3.633-3.633h-14.7q-3.632,0-3.632,3.633v49.322q10.986.03,21.97.141Z" fill="#fff"/>
    <path id="Path_81" data-name="Path 81" d="M1547.734,417.414h-36.5q-2.074,0-2.076-1.9V378.474q-10.984-.117-21.97-.141v54.651q0,3.633,3.632,3.633h56.917q3.459,0,3.46-3.633V421.22Q1551.194,417.416,1547.734,417.414Z" fill="#fff"/>
  </g>
</svg>
