<svg xmlns="http://www.w3.org/2000/svg" width="1242.814" height="64.908" viewBox="0 0 1242.814 64.908">
  <g id="Group_8" data-name="Group 8" transform="translate(-319.38 -550.709)">
    <path id="Path_4" data-name="Path 4" d="M373.529,586.38q0,5.538-2.336,7.871t-7.871,2.336H351.385q-5.364,0-7.7-2.336t-2.336-7.871V553.014q-10.994.168-21.971.256v34.148q0,13.666,7.439,20.933t21.106,7.266h19.03q13.494,0,21.02-7.353t7.525-20.846V552.269q-10.977.053-21.971.225Z" fill="#fff"/>
    <path id="Path_5" data-name="Path 5" d="M417.125,611.984q0,3.633,3.632,3.633h14.359q3.635,0,3.634-3.633V552.845q-10.793-.39-21.625-.511Z" fill="#fff"/>
    <path id="Path_6" data-name="Path 6" d="M474.214,572.367h-.692l-9.68-18.163q-10.779-.8-21.616-1.224l31.816,59.176a5.78,5.78,0,0,0,5.536,3.461h12.629q3.631,0,3.632-3.633V557.556q-10.773-1.488-21.625-2.483Z" fill="#fff"/>
    <path id="Path_7" data-name="Path 7" d="M520.065,561.623q-1.733-.346-3.467-.676v26.471q0,13.666,7.439,20.933t21.106,7.266H564q13.494,0,21.02-7.353t7.525-20.846v-8.131q0-3.8-3.806-3.807H574.207q-3.633,0-3.633,3.807v7.093q0,5.538-2.336,7.871t-7.871,2.336H548.6q-5.364,0-7.7-2.336t-2.335-7.871v-23.9q-9.25-.205-18.569-.48C520.022,561.866,520.044,561.745,520.065,561.623Z" fill="#fff"/>
    <path id="Path_8" data-name="Path 8" d="M664.166,586.38q0,5.538-2.335,7.871t-7.872,2.336H641.676q-5.538,0-7.785-2.336t-2.249-7.871V557.349c-1.547.214-3.093.424-4.642.651-5.8.967-11.572,1.735-17.329,2.367v27.051q0,13.666,7.439,20.933t21.106,7.266h19.376q13.665,0,21.106-7.266t7.44-20.933v-35.2q-10.956.6-21.972,1.528Z" fill="#fff"/>
    <path id="Path_9" data-name="Path 9" d="M706.9,611.984q0,3.633,3.632,3.633h14.36q3.633,0,3.633-3.633V550.845q-10.794.143-21.625.479Z" fill="#fff"/>
    <path id="Path_10" data-name="Path 10" d="M763.985,572.367h-.692L751.751,550.71q-10.447-.008-20.919.1l32.98,61.343a5.783,5.783,0,0,0,5.537,3.461h12.629q3.631,0,3.632-3.633V550.91q-10.807-.094-21.625-.161Z" fill="#fff"/>
    <path id="Path_11" data-name="Path 11" d="M851.277,551.311l-8.924,41.816h-.693l-8.964-42q-11.016.047-22.014-.023l15.755,60.883a4,4,0,0,0,4.325,3.633h22.663q3.284,0,4.151-3.633l15.084-58.291A24.8,24.8,0,0,1,869,554C863.391,554,857.141,552.077,851.277,551.311Z" fill="#fff"/>
    <path id="Path_12" data-name="Path 12" d="M898.231,554.578v57.406q0,3.633,3.633,3.633h56.572q3.458,0,3.46-3.633V600.22q0-3.633-3.46-3.633H922.278q-2.074,0-2.076-1.9V570.637q0-1.9,2.076-1.9h29.583q3.633,0,3.633-3.633v-9.529q-27.3-.257-54.494-.572A10.3,10.3,0,0,1,898.231,554.578Z" fill="#fff"/>
    <path id="Path_13" data-name="Path 13" d="M981.1,611.984q0,3.633,3.632,3.633h14.36q3.633,0,3.633-3.633v-55.95q-10.816-.116-21.625-.22Z" fill="#fff"/>
    <path id="Path_14" data-name="Path 14" d="M1038.187,572.367h-.693l-8.537-16.018q-10.544-.14-21.087-.259l30.144,56.066a5.781,5.781,0,0,0,5.536,3.461h12.629q3.633,0,3.633-3.633V556.822q-10.811-.191-21.625-.348Z" fill="#fff"/>
    <path id="Path_15" data-name="Path 15" d="M1098.389,611.984q0,3.633,3.8,3.633h14.533q3.631,0,3.632-3.633V558.267q-10.976-.341-21.97-.625Z" fill="#fff"/>
    <path id="Path_16" data-name="Path 16" d="M1159.8,611.984q0,3.633,3.633,3.633h14.7q3.633,0,3.632-3.633V560.139q-10.981-.216-21.97-.54Z" fill="#fff"/>
    <path id="Path_17" data-name="Path 17" d="M1257.893,586.38q0,5.538-2.335,7.871t-7.872,2.336H1235.4q-5.538,0-7.784-2.336t-2.249-7.871V560.619q-10.983-.033-21.972-.15v26.949q0,13.666,7.44,20.933t21.1,7.266h19.376q13.666,0,21.107-7.266t7.439-20.933V560.361q-10.983.124-21.971.2Z" fill="#fff"/>
    <path id="Path_18" data-name="Path 18" d="M1300.622,611.984q0,3.633,3.633,3.633h14.359q3.633,0,3.633-3.633V559.733q-10.81.191-21.625.357Z" fill="#fff"/>
    <path id="Path_19" data-name="Path 19" d="M1357.712,572.367h-.692l-7.01-13.151q-10.359.2-20.723.392l28.252,52.548a5.781,5.781,0,0,0,5.536,3.461H1375.7q3.633,0,3.633-3.633V558.645q-10.811.208-21.625.421Z" fill="#fff"/>
    <path id="Path_20" data-name="Path 20" d="M1451.649,575.308h-25.6l4.369-17.539q-10.756.152-21.517.337l-14.165,53.878q-1.038,3.633,2.076,3.633h16.608a3.447,3.447,0,0,0,2.509-.779,5.349,5.349,0,0,0,1.124-2.854l4.845-19.031h33.734l4.844,19.031a5.9,5.9,0,0,0,1.038,2.854,3.4,3.4,0,0,0,2.595.779h16.608q3.114,0,2.076-3.633l-14.354-54.6q-10.6.063-21.207.175Z" fill="#fff"/>
    <path id="Path_21" data-name="Path 21" d="M1558.734,596.414h-36.5q-2.074,0-2.076-1.9V557.474q-10.984-.117-21.97-.141v54.651q0,3.633,3.632,3.633h56.917q3.459,0,3.46-3.633V600.22Q1562.194,596.416,1558.734,596.414Z" fill="#fff"/>
  </g>
</svg>
